# xmcd CD database file
# Copyright (C) 1993-1998 Ti Kan
#
# Track frame offsets:
#	150
#	13780
#	28168
#	40980
#	55923
#	73673
#	88360
#	109138
#	120768
#	134493
#	152075
#	168608
#	180815
#
# Disc length: 2864 seconds
#
# Revision: 1
# Processed by: cddbd v1.4b41PL1 Copyright (c) Steve Scherf et al.
# Submitted via: CDValet v3.01 - Copyright (c) 1997 Greg Leichner
#
DISCID=ad0b2e0d
DTITLE=Pete Panek and the Blue Cats - House Of Cards
DYEAR=1900
DGENRE=
TTITLE0=Bad Reputation
TTITLE1=Get Off My Back Baby
TTITLE2=Little By Little
TTITLE3=Checkbook
TTITLE4=House Of Cards
TTITLE5=747
TTITLE6=The Thin Line
TTITLE7=I'm Not Trying To Be Your Woman
TTITLE8=You're Gonna Need My Help
TTITLE9=1 (900) YOU
TTITLE10=Peepin' and Hidin'
TTITLE11=Cross Cut Saw
TTITLE12=Please Make Love
EXTD=
EXTT0=
EXTT1=
EXTT2=
EXTT3=
EXTT4=
EXTT5=
EXTT6=
EXTT7=
EXTT8=
EXTT9=
EXTT10=
EXTT11=
EXTT12=
PLAYORDER=
